<mxfile host="app.diagrams.net" modified="2023-05-04T13:51:56.008Z" agent="Mozilla/5.0 (Macintosh; Intel Mac OS X 10_15_7) AppleWebKit/537.36 (KHTML, like Gecko) Chrome/112.0.0.0 Safari/537.36" version="21.2.8" etag="HkDjkwarct_4P9HhIGxv" type="github">
  <diagram name="Page-1" id="Z22Cxp9Rhz-d5jCju54J">
    <mxGraphModel>
      <root>
        <mxCell id="0" />
        <mxCell id="1" parent="0" />
      </root>
    </mxGraphModel>
  </diagram>
</mxfile>
